<svg width="1000" height="280" viewBox="0 0 1000 280" fill="none" xmlns="http://www.w3.org/2000/svg">
<path d="M1000 0H0V280H1000V0Z" fill="#010C80"/>
<g clip-path="url(#clip0_61_62)">
<g clip-path="url(#clip1_61_62)">
<g clip-path="url(#clip2_61_62)">
<path d="M624.771 131.728C624.771 127.905 623.802 124.806 622.605 124.806C621.409 124.806 620.439 127.905 620.439 131.728V166.169C620.439 169.992 621.409 173.091 622.605 173.091C623.802 173.091 624.771 169.992 624.771 166.169V131.728Z" fill="#EDFAFF"/>
<g clip-path="url(#clip3_61_62)">
<g clip-path="url(#clip4_61_62)">
<g clip-path="url(#clip5_61_62)">
<g clip-path="url(#clip6_61_62)">
<path d="M179.419 125.276L194.375 162.578C195.084 164.473 195.793 166.202 196.503 167.767C196.785 168.486 197.542 169.059 198.777 169.487C200.011 169.914 200.915 170.128 201.488 170.128C201.672 170.128 201.765 170.551 201.765 171.396C201.765 171.97 201.721 172.329 201.634 172.475C195.939 172.184 192.946 172.038 192.654 172.038C192.324 172.038 189.244 172.184 183.413 172.475C183.219 172.281 183.121 171.839 183.121 171.149C183.121 170.468 183.219 170.128 183.413 170.128C183.977 170.128 184.759 169.982 185.76 169.691C186.751 169.409 187.344 169.079 187.538 168.7C187.674 168.418 187.742 168.107 187.742 167.767C187.742 166.824 187.295 165.187 186.401 162.855L183.909 156.237C183.714 156.052 183.549 155.96 183.413 155.96C181.887 155.863 179.847 155.814 177.291 155.814C174.725 155.814 172.019 155.887 169.172 156.033C168.89 156.033 168.749 156.125 168.749 156.31L166.038 162.927C165.134 165.396 164.682 166.941 164.682 167.563C164.682 168.175 164.945 168.646 165.469 168.977C165.897 169.268 166.645 169.531 167.714 169.764C168.783 170.007 169.507 170.128 169.886 170.128C170.032 170.167 170.105 170.498 170.105 171.119C170.105 171.732 170.056 172.184 169.959 172.475C169.716 172.475 168.598 172.402 166.606 172.256C164.614 172.111 163.001 172.038 161.767 172.038C160.533 172.038 159.075 172.101 157.394 172.227C155.713 172.344 154.513 172.426 153.794 172.475C153.609 172.281 153.517 171.921 153.517 171.396C153.517 170.551 153.565 170.128 153.662 170.128C154.226 170.128 155.139 169.924 156.403 169.516C157.656 169.118 158.448 168.656 158.779 168.131C159.682 166.703 160.586 164.852 161.49 162.578L174.725 130.553C175.814 127.706 176.693 125.995 177.364 125.422C177.743 125.092 178.146 124.927 178.574 124.927C178.904 124.927 179.186 125.043 179.419 125.276ZM170.877 151.762C172.539 151.898 174.249 151.966 176.008 151.966C177.67 151.966 179.613 151.898 181.839 151.762L181.985 151.47L176.577 137.244L170.731 151.47C170.731 151.665 170.78 151.762 170.877 151.762ZM231.807 125.276L246.748 162.578C247.457 164.473 248.172 166.202 248.891 167.767C249.172 168.486 249.93 169.059 251.165 169.487C252.399 169.914 253.298 170.128 253.861 170.128C254.056 170.128 254.153 170.551 254.153 171.396C254.153 171.97 254.104 172.329 254.007 172.475C248.312 172.184 245.324 172.038 245.042 172.038C244.712 172.038 241.627 172.184 235.786 172.475C235.602 172.281 235.509 171.839 235.509 171.149C235.509 170.468 235.602 170.128 235.786 170.128C236.36 170.128 237.142 169.982 238.133 169.691C239.134 169.409 239.727 169.079 239.912 168.7C240.057 168.418 240.13 168.107 240.13 167.767C240.13 166.824 239.678 165.187 238.775 162.855L236.282 156.237C236.097 156.052 235.932 155.96 235.786 155.96C234.27 155.863 232.23 155.814 229.664 155.814C227.108 155.814 224.407 155.887 221.56 156.033C221.268 156.033 221.122 156.125 221.122 156.31L218.426 162.927C217.522 165.396 217.07 166.941 217.07 167.563C217.07 168.175 217.333 168.646 217.857 168.977C218.285 169.268 219.028 169.531 220.087 169.764C221.156 170.007 221.88 170.128 222.259 170.128C222.405 170.167 222.478 170.498 222.478 171.119C222.478 171.732 222.429 172.184 222.332 172.475C222.099 172.475 220.986 172.402 218.994 172.256C217.002 172.111 215.389 172.038 214.155 172.038C212.921 172.038 211.458 172.101 209.767 172.227C208.086 172.344 206.891 172.426 206.181 172.475C205.987 172.281 205.89 171.921 205.89 171.396C205.89 170.551 205.939 170.128 206.036 170.128C206.609 170.128 207.523 169.924 208.776 169.516C210.03 169.118 210.827 168.656 211.167 168.131C212.061 166.703 212.96 164.852 213.863 162.578L227.099 130.553C228.197 127.706 229.076 125.995 229.737 125.422C230.116 125.092 230.519 124.927 230.947 124.927C231.277 124.927 231.564 125.043 231.807 125.276ZM223.265 151.762C224.927 151.898 226.632 151.966 228.381 151.966C230.043 151.966 231.992 151.898 234.227 151.762L234.358 151.47L228.95 137.244L223.119 151.47C223.119 151.665 223.168 151.762 223.265 151.762ZM284.18 125.276L299.136 162.578C299.845 164.473 300.555 166.202 301.264 167.767C301.546 168.486 302.304 169.059 303.538 169.487C304.772 169.914 305.676 170.128 306.249 170.128C306.434 170.128 306.526 170.551 306.526 171.396C306.526 171.97 306.482 172.329 306.395 172.475C300.7 172.184 297.707 172.038 297.416 172.038C297.085 172.038 294.005 172.184 288.174 172.475C287.98 172.281 287.883 171.839 287.883 171.149C287.883 170.468 287.98 170.128 288.174 170.128C288.738 170.128 289.52 169.982 290.521 169.691C291.512 169.409 292.105 169.079 292.299 168.7C292.435 168.418 292.503 168.107 292.503 167.767C292.503 166.824 292.056 165.187 291.162 162.855L288.67 156.237C288.476 156.052 288.31 155.96 288.174 155.96C286.649 155.863 284.608 155.814 282.052 155.814C279.487 155.814 276.78 155.887 273.933 156.033C273.651 156.033 273.51 156.125 273.51 156.31L270.799 162.927C269.895 165.396 269.443 166.941 269.443 167.563C269.443 168.175 269.706 168.646 270.231 168.977C270.658 169.268 271.406 169.531 272.475 169.764C273.544 170.007 274.268 170.128 274.647 170.128C274.793 170.167 274.866 170.498 274.866 171.119C274.866 171.732 274.817 172.184 274.72 172.475C274.477 172.475 273.36 172.402 271.368 172.256C269.375 172.111 267.762 172.038 266.528 172.038C265.294 172.038 263.836 172.101 262.155 172.227C260.474 172.344 259.274 172.426 258.555 172.475C258.37 172.281 258.278 171.921 258.278 171.396C258.278 170.551 258.326 170.128 258.424 170.128C258.987 170.128 259.901 169.924 261.164 169.516C262.418 169.118 263.21 168.656 263.54 168.131C264.444 166.703 265.347 164.852 266.251 162.578L279.487 130.553C280.575 127.706 281.455 125.995 282.125 125.422C282.504 125.092 282.907 124.927 283.335 124.927C283.665 124.927 283.947 125.043 284.18 125.276ZM275.638 151.762C277.3 151.898 279.011 151.966 280.769 151.966C282.431 151.966 284.375 151.898 286.6 151.762L286.746 151.47L281.338 137.244L275.493 151.47C275.493 151.665 275.541 151.762 275.638 151.762ZM329.236 128.833C327.244 128.833 325.869 129.003 325.111 129.343C324.586 129.576 324.3 132.04 324.251 136.733V144.925C324.251 145.965 324.654 146.655 325.461 146.995C326.268 147.326 327.38 147.491 328.799 147.491H330.65C332.409 147.491 333.988 146.66 335.388 144.998C336.787 143.337 337.487 141.179 337.487 138.526C337.487 132.064 334.736 128.833 329.236 128.833ZM330.373 125.276C331.607 125.276 332.9 125.408 334.251 125.67C335.601 125.932 337.001 126.374 338.449 126.996C339.897 127.609 341.189 128.367 342.326 129.27C343.463 130.174 344.391 131.36 345.11 132.827C345.819 134.294 346.174 135.956 346.174 137.812C346.174 140.368 345.343 142.788 343.682 145.071C342.02 147.345 340.003 148.958 337.632 149.911C337.253 150.047 337.156 150.285 337.341 150.625C340.003 155.416 342.661 159.449 345.314 162.723C346.976 164.764 348.769 166.508 350.693 167.956C352.617 169.404 354.386 170.128 355.999 170.128C356.183 170.41 356.276 170.789 356.276 171.265C356.276 171.732 356.183 172.159 355.999 172.548C355.425 172.635 354.687 172.679 353.783 172.679C351.363 172.679 349.172 172.397 347.209 171.834C345.236 171.26 343.526 170.415 342.078 169.297C340.63 168.19 339.435 167.111 338.492 166.061C337.54 165.022 336.539 163.695 335.49 162.082C334.829 161.13 334.071 160.012 333.216 158.729C332.361 157.447 331.709 156.465 331.262 155.785C330.815 155.095 330.305 154.371 329.732 153.613C329.159 152.855 328.673 152.287 328.274 151.908C327.866 151.519 327.473 151.257 327.094 151.12C326.812 150.975 326.243 150.902 325.388 150.902C324.63 150.902 324.251 151.305 324.251 152.112V162.155C324.251 165.002 324.441 167.019 324.82 168.204C324.965 168.768 325.762 169.229 327.21 169.589C328.658 169.948 329.712 170.128 330.373 170.128C330.558 170.128 330.65 170.532 330.65 171.338C330.65 171.853 330.606 172.256 330.519 172.548C325.301 172.256 321.929 172.111 320.403 172.111C319.12 172.111 317.687 172.15 316.103 172.227C314.509 172.295 313.241 172.354 312.298 172.402L310.87 172.548C310.724 172.354 310.651 171.926 310.651 171.265C310.651 170.507 310.724 170.128 310.87 170.128C311.482 170.128 312.396 169.973 313.61 169.662C314.815 169.351 315.515 168.982 315.709 168.554C315.991 167.699 316.132 165.541 316.132 162.082V135.174C316.132 132.472 315.991 130.529 315.709 129.343C315.564 128.964 314.864 128.571 313.61 128.162C312.357 127.764 311.443 127.565 310.87 127.565C310.676 127.565 310.578 127.205 310.578 126.486C310.578 125.777 310.676 125.349 310.87 125.203C315.904 125.349 319.057 125.422 320.33 125.422C321.661 125.422 323.313 125.398 325.286 125.349C327.249 125.301 328.945 125.276 330.373 125.276ZM369.016 125.422C369.016 125.422 373.121 125.422 381.333 125.422C389.068 125.422 395.103 127.701 399.437 132.258C403.78 136.816 405.952 142.175 405.952 148.336C405.952 155.168 403.761 160.901 399.378 165.537C394.986 170.162 388.946 172.475 381.26 172.475C380.259 172.475 378.301 172.426 375.385 172.329C372.47 172.232 370.371 172.184 369.088 172.184L359.614 172.475C359.478 172.329 359.41 171.95 359.41 171.338C359.41 170.532 359.478 170.128 359.614 170.128C360.236 170.128 361.139 169.973 362.325 169.662C363.51 169.351 364.2 168.982 364.395 168.554C364.725 167.563 364.89 165.405 364.89 162.082V135.174C364.89 132.327 364.725 130.383 364.395 129.343C364.249 128.818 363.583 128.391 362.398 128.06C361.212 127.73 360.265 127.565 359.555 127.565C359.361 127.565 359.264 127.205 359.264 126.486C359.264 125.825 359.361 125.398 359.555 125.203C362.684 125.349 365.838 125.422 369.016 125.422ZM372.937 134.532V162.432C372.937 165.094 373.194 166.849 373.709 167.694C374.467 168.462 377.363 168.846 382.397 168.846C392.027 168.846 396.842 161.917 396.842 148.059C396.842 142.744 395.55 138.235 392.965 134.532C390.38 130.83 386.692 128.979 381.901 128.979H381.537C376.989 128.979 374.428 129.358 373.855 130.116C373.243 130.971 372.937 132.443 372.937 134.532ZM418.401 125.568C419.071 125.568 422.322 125.427 428.152 125.145C428.298 125.33 428.371 125.767 428.371 126.457C428.371 127.147 428.274 127.492 428.079 127.492C427.7 127.492 427.205 127.55 426.593 127.667C425.971 127.784 425.329 128.046 424.669 128.454C424.008 128.852 423.677 129.363 423.677 129.985C423.677 130.879 425.48 135.742 429.085 144.576C429.649 146.092 430.12 147.253 430.499 148.059C431.073 149.527 431.787 151.223 432.642 153.147C433.497 155.071 434.231 156.65 434.843 157.884C435.465 159.118 435.776 159.687 435.776 159.589L446.169 135.028C447.112 132.803 447.583 131.165 447.583 130.116C447.583 129.261 447.029 128.61 445.921 128.162C444.804 127.715 443.676 127.492 442.539 127.492C442.345 127.492 442.262 127.147 442.292 126.457C442.311 125.767 442.369 125.33 442.466 125.145C442.894 125.145 444.031 125.213 445.877 125.349C447.733 125.495 449.23 125.568 450.367 125.568C451.601 125.568 453.025 125.51 454.638 125.393C456.251 125.267 457.412 125.184 458.122 125.145C458.219 125.378 458.267 125.733 458.267 126.209C458.267 127.016 458.219 127.419 458.122 127.419C457.509 127.419 456.693 127.594 455.673 127.944C454.652 128.303 453.856 128.814 453.282 129.474C452.573 130.621 451.553 132.71 450.221 135.742L435.411 170.405C434.702 172.115 433.779 172.971 432.642 172.971C432.166 172.971 431.787 172.733 431.505 172.256L416.841 135.815C415.753 132.968 414.849 130.854 414.13 129.474C413.799 128.862 413.066 128.376 411.929 128.017C410.792 127.667 409.893 127.492 409.232 127.492C409.038 127.492 408.941 127.132 408.941 126.413C408.941 125.753 409.013 125.33 409.159 125.145C409.49 125.145 410.792 125.213 413.066 125.349C415.349 125.495 417.128 125.568 418.401 125.568ZM486.59 125.276L501.53 162.578C502.25 164.473 502.964 166.202 503.673 167.767C503.955 168.486 504.713 169.059 505.947 169.487C507.181 169.914 508.085 170.128 508.658 170.128C508.843 170.128 508.935 170.551 508.935 171.396C508.935 171.97 508.887 172.329 508.79 172.475C503.095 172.184 500.107 172.038 499.825 172.038C499.495 172.038 496.409 172.184 490.569 172.475C490.384 172.281 490.292 171.839 490.292 171.149C490.292 170.468 490.384 170.128 490.569 170.128C491.142 170.128 491.925 169.982 492.916 169.691C493.917 169.409 494.514 169.079 494.709 168.7C494.845 168.418 494.913 168.107 494.913 167.767C494.913 166.824 494.461 165.187 493.557 162.855L491.079 156.237C490.885 156.052 490.715 155.96 490.569 155.96C489.053 155.863 487.012 155.814 484.447 155.814C481.891 155.814 479.19 155.887 476.342 156.033C476.051 156.033 475.905 156.125 475.905 156.31L473.208 162.927C472.305 165.396 471.853 166.941 471.853 167.563C471.853 168.175 472.115 168.646 472.64 168.977C473.067 169.268 473.816 169.531 474.885 169.764C475.954 170.007 476.678 170.128 477.057 170.128C477.193 170.167 477.261 170.498 477.261 171.119C477.261 171.732 477.212 172.184 477.115 172.475C476.882 172.475 475.769 172.402 473.777 172.256C471.785 172.111 470.172 172.038 468.937 172.038C467.703 172.038 466.246 172.101 464.564 172.227C462.874 172.344 461.673 172.426 460.964 172.475C460.779 172.281 460.687 171.921 460.687 171.396C460.687 170.551 460.731 170.128 460.818 170.128C461.392 170.128 462.305 169.924 463.559 169.516C464.822 169.118 465.619 168.656 465.949 168.131C466.853 166.703 467.752 164.852 468.646 162.578L481.896 130.553C482.984 127.706 483.859 125.995 484.52 125.422C484.899 125.092 485.302 124.927 485.73 124.927C486.06 124.927 486.347 125.043 486.59 125.276ZM478.048 151.762C479.709 151.898 481.42 151.966 483.179 151.966C484.831 151.966 486.774 151.898 489.009 151.762L489.155 151.47L483.747 137.244L477.902 151.47C477.902 151.665 477.951 151.762 478.048 151.762ZM531.631 128.833C529.639 128.833 528.264 129.003 527.506 129.343C526.991 129.576 526.709 132.04 526.66 136.733V144.925C526.66 145.965 527.064 146.655 527.87 146.995C528.677 147.326 529.789 147.491 531.208 147.491H533.059C534.818 147.491 536.397 146.66 537.797 144.998C539.196 143.337 539.896 141.179 539.896 138.526C539.896 132.064 537.141 128.833 531.631 128.833ZM532.782 125.276C534.017 125.276 535.309 125.408 536.66 125.67C538.011 125.932 539.41 126.374 540.858 126.996C542.306 127.609 543.598 128.367 544.735 129.27C545.872 130.174 546.795 131.36 547.505 132.827C548.224 134.294 548.583 135.956 548.583 137.812C548.583 140.368 547.753 142.788 546.091 145.071C544.429 147.345 542.413 148.958 540.042 149.911C539.663 150.047 539.565 150.285 539.75 150.625C542.413 155.416 545.07 159.449 547.723 162.723C549.385 164.764 551.178 166.508 553.102 167.956C555.017 169.404 556.78 170.128 558.393 170.128C558.588 170.41 558.685 170.789 558.685 171.265C558.685 171.732 558.588 172.159 558.393 172.548C557.83 172.635 557.096 172.679 556.192 172.679C553.773 172.679 551.576 172.397 549.604 171.834C547.641 171.26 545.935 170.415 544.487 169.297C543.039 168.19 541.839 167.111 540.887 166.061C539.944 165.022 538.948 163.695 537.899 162.082C537.238 161.13 536.48 160.012 535.625 158.729C534.77 157.447 534.119 156.465 533.672 155.785C533.215 155.095 532.705 154.371 532.141 153.613C531.568 152.855 531.082 152.287 530.683 151.908C530.275 151.519 529.882 151.257 529.503 151.12C529.221 150.975 528.652 150.902 527.797 150.902C527.039 150.902 526.66 151.305 526.66 152.112V162.155C526.66 165.002 526.85 167.019 527.229 168.204C527.365 168.768 528.157 169.229 529.605 169.589C531.053 169.948 532.112 170.128 532.782 170.128C532.967 170.128 533.059 170.532 533.059 171.338C533.059 171.853 533.011 172.256 532.914 172.548C527.695 172.256 524.328 172.111 522.812 172.111C521.529 172.111 520.096 172.15 518.512 172.227C516.918 172.295 515.645 172.354 514.693 172.402L513.279 172.548C513.133 172.354 513.06 171.926 513.06 171.265C513.06 170.507 513.133 170.128 513.279 170.128C513.891 170.128 514.805 169.973 516.019 169.662C517.224 169.351 517.924 168.982 518.119 168.554C518.4 167.699 518.541 165.541 518.541 162.082V135.174C518.541 132.472 518.4 130.529 518.119 129.343C517.973 128.964 517.273 128.571 516.019 128.162C514.756 127.764 513.843 127.565 513.279 127.565C513.085 127.565 512.988 127.205 512.988 126.486C512.988 125.777 513.085 125.349 513.279 125.203C518.303 125.349 521.457 125.422 522.739 125.422C524.071 125.422 525.718 125.398 527.681 125.349C529.653 125.301 531.354 125.276 532.782 125.276ZM575.331 135.392V146.85C575.331 146.986 575.37 147.093 575.448 147.17C575.516 147.238 575.599 147.297 575.696 147.345H575.769H576.337C577.328 147.345 578.562 146.539 580.039 144.925C583.829 140.844 588.003 136.097 592.561 130.684C593.319 129.79 593.698 129.081 593.698 128.556C593.698 128.08 593.178 127.749 592.138 127.565C591.088 127.371 590.209 127.273 589.5 127.273C589.305 127.273 589.189 127.001 589.15 126.457C589.101 125.913 589.121 125.476 589.208 125.145C594.475 125.427 597.347 125.568 597.823 125.568C598.727 125.568 599.616 125.544 600.49 125.495C601.375 125.446 602.327 125.388 603.347 125.32C604.368 125.242 605.208 125.184 605.869 125.145C605.966 125.33 606 125.733 605.971 126.355C605.952 126.967 605.869 127.273 605.723 127.273C602.4 127.652 600.004 128.648 598.537 130.262L585.302 145.348C584.777 145.97 584.825 146.636 585.447 147.345L602.094 167.125C602.949 168.175 604.1 168.938 605.548 169.414C606.996 169.89 608.051 170.128 608.711 170.128C608.954 170.128 609.076 170.575 609.076 171.469C609.076 171.848 609.003 172.184 608.857 172.475C603.163 172.184 599.912 172.038 599.106 172.038C597.59 172.038 595.777 172.101 593.668 172.227C591.55 172.344 590.063 172.426 589.208 172.475C589.023 172.281 588.931 171.839 588.931 171.149C588.931 170.468 589.023 170.128 589.208 170.128C589.733 170.128 590.398 169.958 591.205 169.618C592.012 169.288 592.415 168.933 592.415 168.554C592.415 168.321 591.749 167.325 590.418 165.566C589.096 163.807 587.269 161.567 584.937 158.846C582.615 156.115 580.316 153.564 578.042 151.193C577.848 150.999 577.323 150.902 576.468 150.902C575.71 150.902 575.331 151.189 575.331 151.762V162.286C575.331 164.803 575.545 166.892 575.973 168.554C576.07 168.884 576.721 169.229 577.926 169.589C579.141 169.948 579.962 170.128 580.389 170.128C580.574 170.128 580.666 170.575 580.666 171.469C580.666 171.848 580.623 172.184 580.535 172.475C574.841 172.184 571.828 172.038 571.498 172.038C570.545 172.038 569.549 172.062 568.509 172.111C567.46 172.159 566.308 172.218 565.055 172.286C563.792 172.363 562.781 172.426 562.023 172.475C561.838 172.281 561.746 171.945 561.746 171.469C561.746 170.575 561.838 170.128 562.023 170.128C562.596 170.128 563.485 169.958 564.69 169.618C565.905 169.288 566.581 168.933 566.717 168.554C567.105 167.087 567.3 165.094 567.3 162.578V135.101C567.3 132.254 567.105 130.262 566.717 129.125C566.532 128.746 565.871 128.376 564.734 128.017C563.597 127.667 562.742 127.492 562.169 127.492C561.974 127.492 561.877 127.132 561.877 126.413C561.877 125.655 561.926 125.233 562.023 125.145C562.266 125.145 563.583 125.213 565.973 125.349C568.373 125.495 570.215 125.568 571.498 125.568C571.877 125.568 574.913 125.427 580.608 125.145C580.744 125.573 580.812 125.952 580.812 126.282C580.812 127.089 580.72 127.492 580.535 127.492C580.107 127.492 579.252 127.681 577.97 128.06C576.687 128.439 575.997 128.794 575.9 129.125C575.521 130.592 575.331 132.681 575.331 135.392Z" fill="#EDFAFF"/>
</g>
</g>
</g>
</g>
<g clip-path="url(#clip7_61_62)">
<g clip-path="url(#clip8_61_62)">
<path d="M636.113 172.643L640.525 177.369L694.073 161.614L703.404 176.012L692.739 182.147H711.937L716.203 165.877L743.404 165.612L747.669 177.081L738.868 182.147H753.536L760.735 161.614L785 160.278L822.865 171.214H836.997L845.656 161.346L834.862 166.147L824.732 164.015L785.533 138.15L739.669 115.75L697.004 131.747L680.739 142.949L676.474 142.683L664.739 126.683L666.539 138.243L657.808 129.615L664.206 150.681L636.113 172.643Z" fill="#E3F0FF"/>
</g>
</g>
</g>
</g>
</g>
<defs>
<clipPath id="clip0_61_62">
<rect width="700" height="66.5" fill="white" transform="translate(149.576 115.698)"/>
</clipPath>
<clipPath id="clip1_61_62">
<rect width="692.16" height="66.397" fill="white" transform="translate(153.496 115.75)"/>
</clipPath>
<clipPath id="clip2_61_62">
<rect width="692.16" height="66.397" fill="white" transform="translate(153.496 115.75)"/>
</clipPath>
<clipPath id="clip3_61_62">
<rect width="455.601" height="48.0441" fill="white" transform="translate(153.496 124.926)"/>
</clipPath>
<clipPath id="clip4_61_62">
<rect width="455.601" height="48.0441" fill="white" transform="translate(153.496 124.926)"/>
</clipPath>
<clipPath id="clip5_61_62">
<rect width="455.601" height="48.0441" fill="white" transform="translate(153.496 124.926)"/>
</clipPath>
<clipPath id="clip6_61_62">
<rect width="455.601" height="48.0441" fill="white" transform="translate(153.496 124.926)"/>
</clipPath>
<clipPath id="clip7_61_62">
<rect width="209.542" height="66.397" fill="white" transform="translate(636.113 115.75)"/>
</clipPath>
<clipPath id="clip8_61_62">
<rect width="209.542" height="66.397" fill="white" transform="translate(636.113 115.75)"/>
</clipPath>
</defs>
</svg>
