<svg xmlns="http://www.w3.org/2000/svg" version="1.1" xmlns:xlink="http://www.w3.org/1999/xlink" xmlns:svgjs="http://svgjs.dev/svgjs" width="1000" height="1000" viewBox="0 0 1000 1000"><rect width="1000" height="1000" fill="#010c80"></rect><g transform="matrix(0.7,0,0,0.7,149.57575761437556,466.6985023117723)"><svg viewBox="0 0 396 38" data-background-color="#010c80" preserveAspectRatio="xMidYMid meet" height="95" width="1000" xmlns="http://www.w3.org/2000/svg" xmlns:xlink="http://www.w3.org/1999/xlink"><g id="tight-bounds" transform="matrix(1,0,0,1,0.2400000218468108,0.029428752668962943)"><svg viewBox="0 0 395.52 37.941143996915194" height="37.941143996915194" width="395.52"><g><svg viewBox="0 0 600.8837582234396 57.64112357444149" height="37.941143996915194" width="395.52"><g><rect width="3.7613140445605375" height="41.91702546477112" x="405.3663718443993" y="7.8620490548351825" fill="#edfaff" opacity="1" stroke-width="0" stroke="transparent" fill-opacity="1" class="rect-o-0" data-fill-palette-color="primary" rx="1%" id="o-0" data-palette-color="#edfaff"></rect></g><g transform="matrix(1,0,0,1,0,7.966320262458989)"><svg viewBox="0 0 395.52 41.70848304952351" height="41.70848304952351" width="395.52"><g id="textblocktransform"><svg viewBox="0 0 395.52 41.70848304952351" height="41.70848304952351" width="395.52" id="textblock"><g><svg viewBox="0 0 395.52 41.70848304952351" height="41.70848304952351" width="395.52"><g transform="matrix(1,0,0,1,0,0)"><svg width="395.52" viewBox="1.3200000524520874 -32.470001220703125 312.5299987792969 32.96000289916992" height="41.70848304952351" data-palette-color="#edfaff"><g class="undefined-text-0" data-fill-palette-color="primary" id="text-0"><path d="M19.09-32.23L19.09-32.23 29.35-6.64Q30.08-4.69 30.81-3.08L30.81-3.08Q31.1-2.34 32.37-1.9 33.64-1.46 34.23-1.46L34.23-1.46Q34.42-1.46 34.42-0.59L34.42-0.59Q34.42 0 34.33 0.15L34.33 0.15Q28.47-0.15 28.17-0.15L28.17-0.15Q27.83-0.15 21.83 0.15L21.83 0.15Q21.63-0.05 21.63-0.76 21.63-1.46 21.83-1.46L21.83-1.46Q22.41-1.46 23.44-1.76 24.46-2.05 24.66-2.44L24.66-2.44Q24.8-2.73 24.8-3.08L24.8-3.08Q24.8-4.05 23.88-6.45L23.88-6.45 22.17-10.99Q21.97-11.18 21.83-11.18L21.83-11.18Q20.26-11.28 17.63-11.28 14.99-11.28 12.06-11.13L12.06-11.13Q11.77-11.13 11.77-10.94L11.77-10.94 9.91-6.4Q8.98-3.86 8.98-3.22 8.98-2.59 9.52-2.25L9.52-2.25Q9.96-1.95 11.06-1.71 12.16-1.46 12.55-1.46L12.55-1.46Q12.7-1.42 12.7-0.78 12.7-0.15 12.6 0.15L12.6 0.15Q12.35 0.15 10.3 0 8.25-0.15 6.98-0.15 5.71-0.15 3.98-0.02 2.25 0.1 1.51 0.15L1.51 0.15Q1.32-0.05 1.32-0.59L1.32-0.59Q1.32-1.46 1.42-1.46L1.42-1.46Q2-1.46 3.3-1.88 4.59-2.29 4.93-2.83L4.93-2.83Q5.86-4.3 6.79-6.64L6.79-6.64 15.87-28.61Q16.99-31.54 17.68-32.13L17.68-32.13Q18.07-32.47 18.51-32.47L18.51-32.47Q18.85-32.47 19.09-32.23ZM13.23-14.06L13.23-14.06Q14.94-13.92 16.75-13.92L16.75-13.92Q18.46-13.92 20.75-14.06L20.75-14.06 20.85-14.26 17.14-24.02 13.13-14.26Q13.13-14.06 13.23-14.06ZM55.03-32.23L55.03-32.23 65.28-6.64Q66.01-4.69 66.75-3.08L66.75-3.08Q67.04-2.34 68.31-1.9 69.58-1.46 70.16-1.46L70.16-1.46Q70.36-1.46 70.36-0.59L70.36-0.59Q70.36 0 70.26 0.15L70.26 0.15Q64.4-0.15 64.11-0.15L64.11-0.15Q63.77-0.15 57.76 0.15L57.76 0.15Q57.57-0.05 57.57-0.76 57.57-1.46 57.76-1.46L57.76-1.46Q58.35-1.46 59.37-1.76 60.4-2.05 60.59-2.44L60.59-2.44Q60.74-2.73 60.74-3.08L60.74-3.08Q60.74-4.05 59.81-6.45L59.81-6.45 58.1-10.99Q57.91-11.18 57.76-11.18L57.76-11.18Q56.2-11.28 53.56-11.28 50.93-11.28 48-11.13L48-11.13Q47.7-11.13 47.7-10.94L47.7-10.94 45.85-6.4Q44.92-3.86 44.92-3.22 44.92-2.59 45.46-2.25L45.46-2.25Q45.9-1.95 46.99-1.71 48.09-1.46 48.48-1.46L48.48-1.46Q48.63-1.42 48.63-0.78 48.63-0.15 48.53 0.15L48.53 0.15Q48.29 0.15 46.24 0 44.19-0.15 42.92-0.15 41.65-0.15 39.91-0.02 38.18 0.1 37.45 0.15L37.45 0.15Q37.25-0.05 37.25-0.59L37.25-0.59Q37.25-1.46 37.35-1.46L37.35-1.46Q37.94-1.46 39.23-1.88 40.52-2.29 40.87-2.83L40.87-2.83Q41.79-4.3 42.72-6.64L42.72-6.64 51.8-28.61Q52.93-31.54 53.61-32.13L53.61-32.13Q54-32.47 54.44-32.47L54.44-32.47Q54.78-32.47 55.03-32.23ZM49.17-14.06L49.17-14.06Q50.88-13.92 52.68-13.92L52.68-13.92Q54.39-13.92 56.69-14.06L56.69-14.06 56.78-14.26 53.07-24.02 49.07-14.26Q49.07-14.06 49.17-14.06ZM90.96-32.23L90.96-32.23 101.22-6.64Q101.95-4.69 102.68-3.08L102.68-3.08Q102.97-2.34 104.24-1.9 105.51-1.46 106.1-1.46L106.1-1.46Q106.29-1.46 106.29-0.59L106.29-0.59Q106.29 0 106.2 0.15L106.2 0.15Q100.34-0.15 100.04-0.15L100.04-0.15Q99.7-0.15 93.7 0.15L93.7 0.15Q93.5-0.05 93.5-0.76 93.5-1.46 93.7-1.46L93.7-1.46Q94.28-1.46 95.31-1.76 96.33-2.05 96.53-2.44L96.53-2.44Q96.67-2.73 96.67-3.08L96.67-3.08Q96.67-4.05 95.75-6.45L95.75-6.45 94.04-10.99Q93.84-11.18 93.7-11.18L93.7-11.18Q92.13-11.28 89.5-11.28 86.86-11.28 83.93-11.13L83.93-11.13Q83.64-11.13 83.64-10.94L83.64-10.94 81.78-6.4Q80.85-3.86 80.85-3.22 80.85-2.59 81.39-2.25L81.39-2.25Q81.83-1.95 82.93-1.71 84.03-1.46 84.42-1.46L84.42-1.46Q84.57-1.42 84.57-0.78 84.57-0.15 84.47 0.15L84.47 0.15Q84.22 0.15 82.17 0 80.12-0.15 78.85-0.15 77.58-0.15 75.85-0.02 74.12 0.1 73.38 0.15L73.38 0.15Q73.19-0.05 73.19-0.59L73.19-0.59Q73.19-1.46 73.29-1.46L73.29-1.46Q73.87-1.46 75.17-1.88 76.46-2.29 76.8-2.83L76.8-2.83Q77.73-4.3 78.66-6.64L78.66-6.64 87.74-28.61Q88.86-31.54 89.55-32.13L89.55-32.13Q89.94-32.47 90.38-32.47L90.38-32.47Q90.72-32.47 90.96-32.23ZM85.1-14.06L85.1-14.06Q86.81-13.92 88.62-13.92L88.62-13.92Q90.33-13.92 92.62-14.06L92.62-14.06 92.72-14.26 89.01-24.02 85-14.26Q85-14.06 85.1-14.06ZM121.87-29.79L121.87-29.79Q119.82-29.79 119.04-29.44L119.04-29.44Q118.5-29.2 118.45-24.37L118.45-24.37 118.45-18.75Q118.45-17.68 119.28-17.33 120.11-16.99 121.57-16.99L121.57-16.99 122.84-16.99Q124.65-16.99 126.09-18.7 127.53-20.41 127.53-23.14L127.53-23.14Q127.53-29.79 121.87-29.79ZM122.65-32.23L122.65-32.23Q123.92-32.23 125.31-31.96 126.7-31.69 128.19-31.05 129.68-30.42 130.85-29.49 132.02-28.56 132.76-27.05 133.49-25.54 133.49-23.63L133.49-23.63Q133.49-21 131.78-18.65 130.07-16.31 127.63-15.33L127.63-15.33Q127.24-15.19 127.43-14.84L127.43-14.84Q130.17-9.91 132.9-6.54L132.9-6.54Q134.61-4.44 136.59-2.95 138.57-1.46 140.23-1.46L140.23-1.46Q140.42-1.17 140.42-0.68L140.42-0.68Q140.42-0.2 140.23 0.2L140.23 0.2Q139.64 0.29 138.71 0.29L138.71 0.29Q136.22 0.29 134.2-0.29 132.17-0.88 130.68-2.03 129.19-3.17 128.22-4.25 127.24-5.32 126.16-6.98L126.16-6.98Q125.48-7.96 124.6-9.28 123.72-10.6 123.26-11.3 122.8-12.01 122.21-12.79 121.62-13.57 121.21-13.96 120.79-14.36 120.4-14.5L120.4-14.5Q120.11-14.65 119.23-14.65L119.23-14.65Q118.45-14.65 118.45-13.82L118.45-13.82 118.45-6.93Q118.45-4 118.84-2.78L118.84-2.78Q118.99-2.2 120.48-1.83 121.97-1.46 122.65-1.46L122.65-1.46Q122.84-1.46 122.84-0.63L122.84-0.63Q122.84-0.1 122.75 0.2L122.75 0.2Q117.38-0.1 115.81-0.1L115.81-0.1Q114.49-0.1 112.86-0.02 111.22 0.05 110.25 0.1L110.25 0.1 109.27 0.2Q109.12 0 109.12-0.68L109.12-0.68Q109.12-1.46 109.27-1.46L109.27-1.46Q109.9-1.46 111.15-1.78 112.39-2.1 112.59-2.54L112.59-2.54Q112.88-3.42 112.88-6.98L112.88-6.98 112.88-25.44Q112.88-28.22 112.59-29.44L112.59-29.44Q112.44-29.83 111.15-30.25 109.86-30.66 109.27-30.66L109.27-30.66Q109.07-30.66 109.07-31.4L109.07-31.4Q109.07-32.13 109.27-32.28L109.27-32.28Q114.45-32.13 115.76-32.13L115.76-32.13Q117.13-32.13 119.16-32.18 121.18-32.23 122.65-32.23ZM149.16-32.13L149.16-32.13Q149.16-32.13 157.61-32.13L157.61-32.13Q165.57-32.13 170.03-27.44 174.5-22.75 174.5-16.41L174.5-16.41Q174.5-9.38 169.99-4.61 165.47 0.15 157.56 0.15L157.56 0.15Q156.53 0.15 153.53 0.05 150.53-0.05 149.21-0.05L149.21-0.05 142.71 0.15Q142.57 0 142.57-0.63L142.57-0.63Q142.57-1.46 142.71-1.46L142.71-1.46Q143.35-1.46 144.57-1.78 145.79-2.1 145.99-2.54L145.99-2.54Q146.33-3.56 146.33-6.98L146.33-6.98 146.33-25.44Q146.33-28.37 145.99-29.44L145.99-29.44Q145.84-29.98 144.62-30.32 143.4-30.66 142.67-30.66L142.67-30.66Q142.47-30.66 142.47-31.4L142.47-31.4Q142.47-32.08 142.67-32.28L142.67-32.28Q145.89-32.13 149.16-32.13ZM151.85-25.88L151.85-25.88 151.85-6.74Q151.85-4 152.38-3.13L152.38-3.13Q153.16-2.34 158.34-2.34L158.34-2.34Q168.25-2.34 168.25-16.6L168.25-16.6Q168.25-22.07 165.59-25.88 162.93-29.69 158-29.69L158-29.69 157.75-29.69Q153.07-29.69 152.48-28.91L152.48-28.91Q151.85-28.03 151.85-25.88ZM183.04-32.03L183.04-32.03Q183.73-32.03 189.73-32.32L189.73-32.32Q189.88-32.13 189.88-31.42 189.88-30.71 189.68-30.71L189.68-30.71Q189.29-30.71 188.66-30.59 188.02-30.47 187.34-30.05 186.66-29.64 186.66-29L186.66-29Q186.66-28.08 190.37-18.99L190.37-18.99Q190.95-17.43 191.34-16.6L191.34-16.6Q191.93-15.09 192.81-13.11 193.69-11.13 194.32-9.86 194.96-8.59 194.96-8.69L194.96-8.69 202.09-25.54Q203.06-27.83 203.06-28.91L203.06-28.91Q203.06-29.79 201.92-30.25 200.77-30.71 199.6-30.71L199.6-30.71Q199.4-30.71 199.43-31.42 199.45-32.13 199.55-32.32L199.55-32.32Q199.99-32.32 201.89-32.18 203.8-32.03 204.97-32.03L204.97-32.03Q206.24-32.03 207.9-32.15 209.56-32.28 210.29-32.32L210.29-32.32Q210.39-32.08 210.39-31.59L210.39-31.59Q210.39-30.76 210.29-30.76L210.29-30.76Q209.66-30.76 208.61-30.4 207.56-30.03 206.97-29.35L206.97-29.35Q206.24-28.17 204.87-25.05L204.87-25.05 194.71-1.27Q193.98 0.49 192.81 0.49L192.81 0.49Q192.32 0.49 192.03 0L192.03 0 181.97-25Q180.85-27.93 180.11-29.35L180.11-29.35Q179.77-29.98 178.6-30.35 177.43-30.71 176.75-30.71L176.75-30.71Q176.55-30.71 176.55-31.45L176.55-31.45Q176.55-32.13 176.7-32.32L176.7-32.32Q177.04-32.32 179.38-32.18 181.73-32.03 183.04-32.03ZM229.82-32.23L229.82-32.23 240.07-6.64Q240.81-4.69 241.54-3.08L241.54-3.08Q241.83-2.34 243.1-1.9 244.37-1.46 244.96-1.46L244.96-1.46Q245.15-1.46 245.15-0.59L245.15-0.59Q245.15 0 245.05 0.15L245.05 0.15Q239.19-0.15 238.9-0.15L238.9-0.15Q238.56-0.15 232.55 0.15L232.55 0.15Q232.36-0.05 232.36-0.76 232.36-1.46 232.55-1.46L232.55-1.46Q233.14-1.46 234.16-1.76 235.19-2.05 235.39-2.44L235.39-2.44Q235.53-2.73 235.53-3.08L235.53-3.08Q235.53-4.05 234.6-6.45L234.6-6.45 232.9-10.99Q232.7-11.18 232.55-11.18L232.55-11.18Q230.99-11.28 228.35-11.28 225.72-11.28 222.79-11.13L222.79-11.13Q222.49-11.13 222.49-10.94L222.49-10.94 220.64-6.4Q219.71-3.86 219.71-3.22 219.71-2.59 220.25-2.25L220.25-2.25Q220.69-1.95 221.79-1.71 222.89-1.46 223.28-1.46L223.28-1.46Q223.42-1.42 223.42-0.78 223.42-0.15 223.32 0.15L223.32 0.15Q223.08 0.15 221.03 0 218.98-0.15 217.71-0.15 216.44-0.15 214.71-0.02 212.97 0.1 212.24 0.15L212.24 0.15Q212.05-0.05 212.05-0.59L212.05-0.59Q212.05-1.46 212.14-1.46L212.14-1.46Q212.73-1.46 214.02-1.88 215.32-2.29 215.66-2.83L215.66-2.83Q216.59-4.3 217.51-6.64L217.51-6.64 226.6-28.61Q227.72-31.54 228.4-32.13L228.4-32.13Q228.79-32.47 229.23-32.47L229.23-32.47Q229.57-32.47 229.82-32.23ZM223.96-14.06L223.96-14.06Q225.67-13.92 227.48-13.92L227.48-13.92Q229.18-13.92 231.48-14.06L231.48-14.06 231.58-14.26 227.87-24.02 223.86-14.26Q223.86-14.06 223.96-14.06ZM260.72-29.79L260.72-29.79Q258.67-29.79 257.89-29.44L257.89-29.44Q257.36-29.2 257.31-24.37L257.31-24.37 257.31-18.75Q257.31-17.68 258.14-17.33 258.97-16.99 260.43-16.99L260.43-16.99 261.7-16.99Q263.51-16.99 264.95-18.7 266.39-20.41 266.39-23.14L266.39-23.14Q266.39-29.79 260.72-29.79ZM261.51-32.23L261.51-32.23Q262.78-32.23 264.17-31.96 265.56-31.69 267.05-31.05 268.54-30.42 269.71-29.49 270.88-28.56 271.61-27.05 272.35-25.54 272.35-23.63L272.35-23.63Q272.35-21 270.64-18.65 268.93-16.31 266.49-15.33L266.49-15.33Q266.1-15.19 266.29-14.84L266.29-14.84Q269.03-9.91 271.76-6.54L271.76-6.54Q273.47-4.44 275.45-2.95 277.42-1.46 279.08-1.46L279.08-1.46Q279.28-1.17 279.28-0.68L279.28-0.68Q279.28-0.2 279.08 0.2L279.08 0.2Q278.5 0.29 277.57 0.29L277.57 0.29Q275.08 0.29 273.05-0.29 271.03-0.88 269.54-2.03 268.05-3.17 267.07-4.25 266.1-5.32 265.02-6.98L265.02-6.98Q264.34-7.96 263.46-9.28 262.58-10.6 262.12-11.3 261.65-12.01 261.07-12.79 260.48-13.57 260.07-13.96 259.65-14.36 259.26-14.5L259.26-14.5Q258.97-14.65 258.09-14.65L258.09-14.65Q257.31-14.65 257.31-13.82L257.31-13.82 257.31-6.93Q257.31-4 257.7-2.78L257.7-2.78Q257.84-2.2 259.33-1.83 260.82-1.46 261.51-1.46L261.51-1.46Q261.7-1.46 261.7-0.63L261.7-0.63Q261.7-0.1 261.6 0.2L261.6 0.2Q256.23-0.1 254.67-0.1L254.67-0.1Q253.35-0.1 251.72-0.02 250.08 0.05 249.1 0.1L249.1 0.1 248.13 0.2Q247.98 0 247.98-0.68L247.98-0.68Q247.98-1.46 248.13-1.46L248.13-1.46Q248.76-1.46 250.01-1.78 251.25-2.1 251.45-2.54L251.45-2.54Q251.74-3.42 251.74-6.98L251.74-6.98 251.74-25.44Q251.74-28.22 251.45-29.44L251.45-29.44Q251.3-29.83 250.01-30.25 248.71-30.66 248.13-30.66L248.13-30.66Q247.93-30.66 247.93-31.4L247.93-31.4Q247.93-32.13 248.13-32.28L248.13-32.28Q253.3-32.13 254.62-32.13L254.62-32.13Q255.99-32.13 258.01-32.18 260.04-32.23 261.51-32.23ZM290.7-25.29L290.7-25.29 290.7-17.43Q290.7-17.29 290.78-17.21 290.85-17.14 290.95-17.09L290.95-17.09 291-17.09 291.39-17.09Q292.41-17.09 293.93-18.75L293.93-18.75Q297.83-22.95 302.52-28.52L302.52-28.52Q303.3-29.44 303.3-29.98L303.3-29.98Q303.3-30.47 302.23-30.66 301.15-30.86 300.42-30.86L300.42-30.86Q300.22-30.86 300.18-31.42 300.13-31.98 300.22-32.32L300.22-32.32Q305.64-32.03 306.13-32.03L306.13-32.03Q307.06-32.03 307.96-32.08 308.87-32.13 309.92-32.2 310.97-32.28 311.65-32.32L311.65-32.32Q311.75-32.13 311.72-31.49 311.7-30.86 311.55-30.86L311.55-30.86Q308.13-30.47 306.62-28.81L306.62-28.81 297.54-18.46Q297-17.82 297.64-17.09L297.64-17.09 309.06-3.52Q309.94-2.44 311.43-1.95 312.92-1.46 313.6-1.46L313.6-1.46Q313.85-1.46 313.85-0.54L313.85-0.54Q313.85-0.15 313.7 0.15L313.7 0.15Q307.84-0.15 307.01-0.15L307.01-0.15Q305.45-0.15 303.28-0.02 301.1 0.1 300.22 0.15L300.22 0.15Q300.03-0.05 300.03-0.76 300.03-1.46 300.22-1.46L300.22-1.46Q300.76-1.46 301.59-1.81 302.42-2.15 302.42-2.54L302.42-2.54Q302.42-2.78 301.05-4.59 299.69-6.4 297.29-9.2 294.9-12.01 292.56-14.45L292.56-14.45Q292.36-14.65 291.48-14.65L291.48-14.65Q290.7-14.65 290.7-14.06L290.7-14.06 290.7-6.84Q290.7-4.25 291.14-2.54L291.14-2.54Q291.24-2.2 292.48-1.83 293.73-1.46 294.17-1.46L294.17-1.46Q294.36-1.46 294.36-0.54L294.36-0.54Q294.36-0.15 294.27 0.15L294.27 0.15Q288.41-0.15 288.07-0.15L288.07-0.15Q287.09-0.15 286.02-0.1 284.94-0.05 283.65 0.02 282.35 0.1 281.57 0.15L281.57 0.15Q281.38-0.05 281.38-0.54L281.38-0.54Q281.38-1.46 281.57-1.46L281.57-1.46Q282.16-1.46 283.4-1.81 284.65-2.15 284.79-2.54L284.79-2.54Q285.19-4.05 285.19-6.64L285.19-6.64 285.19-25.49Q285.19-28.42 284.79-29.59L284.79-29.59Q284.6-29.98 283.43-30.35 282.26-30.71 281.67-30.71L281.67-30.71Q281.47-30.71 281.47-31.45L281.47-31.45Q281.47-32.23 281.57-32.32L281.57-32.32Q281.82-32.32 284.28-32.18 286.75-32.03 288.07-32.03L288.07-32.03Q288.46-32.03 294.32-32.32L294.32-32.32Q294.46-31.88 294.46-31.54L294.46-31.54Q294.46-30.71 294.27-30.71L294.27-30.71Q293.83-30.71 292.51-30.32 291.19-29.93 291.09-29.59L291.09-29.59Q290.7-28.08 290.7-25.29Z" fill="#edfaff" data-fill-palette-color="primary"></path></g></svg></g></svg></g></svg></g></svg></g><g transform="matrix(1,0,0,1,418.97405773335913,0)"><svg viewBox="0 0 181.9097004900805 57.64112357444149" height="57.64112357444149" width="181.9097004900805"><g><svg xmlns="http://www.w3.org/2000/svg" xmlns:xlink="http://www.w3.org/1999/xlink" version="1.1" x="0" y="0" viewBox="5 35.74100112915039 90 28.518001556396484" enable-background="new 0 0 100 100" xml:space="preserve" height="57.64112357444149" width="181.9097004900805" class="icon-icon-0" data-fill-palette-color="accent" id="icon-0"><polygon fill="#e3f0ff" points="5,60.177 6.895,62.207 29.894,55.44 33.902,61.624 29.321,64.259 37.567,64.259 39.399,57.271   51.082,57.157 52.914,62.083 49.134,64.259 55.434,64.259 58.526,55.44 68.948,54.866 85.211,59.563 91.281,59.563 95,55.325   90.364,57.387 86.013,56.471 69.177,45.362 49.478,35.741 31.153,42.612 24.167,47.423 22.335,47.309 17.295,40.437 18.068,45.402   14.318,41.696 17.066,50.744 " data-fill-palette-color="accent"></polygon></svg></g></svg></g></svg></g><defs></defs></svg><rect width="395.52" height="37.941143996915194" fill="none" stroke="none" visibility="hidden"></rect></g></svg></g></svg>